{
  "asset": {
    "generator": "gltfeditor.com",
    "version": "2.0"
  },
  "buffers": [
    {
      "uri": "data:application/octet-stream;base64,",
      "byteLength": 215872
    }
  ],
  "bufferViews": [
    {
      "buffer": 0,
      "byteOffset": 0,
      "byteLength": 22512,
      "byteStride": 12,
      "target": 34962
    },
    {
      "buffer": 0,
      "byteOffset": 22512,
      "byteLength": 30016,
      "byteStride": 16,
      "target": 34962
    },
    {
      "buffer": 0,
      "byteOffset": 52528,
      "byteLength": 22512,
      "byteStride": 12,
      "target": 34962
    },
    {
      "buffer": 0,
      "byteOffset": 75040,
      "byteLength": 22512,
      "byteStride": 12,
      "target": 34962
    },
    {
      "buffer": 0,
      "byteOffset": 97552,
      "byteLength": 22512,
      "byteStride": 12,
      "target": 34962
    },
    {
      "buffer": 0,
      "byteOffset": 120064,
      "byteLength": 22512,
      "byteStride": 12,
      "target": 34962
    },
    {
      "buffer": 0,
      "byteOffset": 142576,
      "byteLength": 22512,
      "byteStride": 12,
      "target": 34962
    },
    {
      "buffer": 0,
      "byteOffset": 165088,
      "byteLength": 22512,
      "byteStride": 12,
      "target": 34962
    },
    {
      "buffer": 0,
      "byteOffset": 187600,
      "byteLength": 22512,
      "byteStride": 12,
      "target": 34962
    },
    {
      "buffer": 0,
      "byteOffset": 210112,
      "byteLength": 5760,
      "target": 34963
    }
  ],
  "accessors": [
    {
      "bufferView": 0,
      "byteOffset": 0,
      "componentType": 5126,
      "normalized": false,
      "count": 1876,
      "min": [
        -0.9904382824897766,
        -0.9904382824897766,
        -0.9951386451721191
      ],
      "max": [
        0.9904382824897766,
        0.9904387593269348,
        0.99513840675354
      ],
      "type": "VEC3"
    },
    {
      "bufferView": 1,
      "byteOffset": 0,
      "componentType": 5126,
      "normalized": false,
      "count": 1876,
      "min": [
        1,
        0,
        0,
        1
      ],
      "max": [
        1,
        0,
        0,
        1
      ],
      "type": "VEC4"
    },
    {
      "bufferView": 2,
      "byteOffset": 0,
      "componentType": 5126,
      "normalized": false,
      "count": 1876,
      "min": [
        -0.010000002570450306,
        -0.01000000350177288,
        -0.009999999776482582
      ],
      "max": [
        0.009999997913837433,
        0.00999999139457941,
        0.009999999776482582
      ],
      "type": "VEC3"
    },
    {
      "bufferView": 3,
      "byteOffset": 0,
      "componentType": 5126,
      "normalized": false,
      "count": 1876,
      "min": [
        0,
        0,
        0
      ],
      "max": [
        0,
        0,
        0
      ],
      "type": "VEC3"
    },
    {
      "bufferView": 4,
      "byteOffset": 0,
      "componentType": 5126,
      "normalized": false,
      "count": 1876,
      "min": [
        -0.03132651373744011,
        -0.022857652977108955,
        0
      ],
      "max": [
        0.03132651746273041,
        0.022624697536230087,
        0.008465131744742393
      ],
      "type": "VEC3"
    },
    {
      "bufferView": 5,
      "byteOffset": 0,
      "componentType": 5126,
      "normalized": false,
      "count": 1876,
      "min": [
        0,
        0,
        0
      ],
      "max": [
        0,
        0,
        0
      ],
      "type": "VEC3"
    },
    {
      "bufferView": 6,
      "byteOffset": 0,
      "componentType": 5126,
      "normalized": false,
      "count": 1876,
      "min": [
        0,
        0,
        0
      ],
      "max": [
        0,
        0,
        0
      ],
      "type": "VEC3"
    },
    {
      "bufferView": 7,
      "byteOffset": 0,
      "componentType": 5126,
      "normalized": false,
      "count": 1876,
      "min": [
        -0.008781091310083866,
        -0.0007655842928215861,
        0
      ],
      "max": [
        0.00878109224140644,
        0,
        0
      ],
      "type": "VEC3"
    },
    {
      "bufferView": 8,
      "byteOffset": 0,
      "componentType": 5126,
      "normalized": false,
      "count": 1876,
      "min": [
        0,
        0,
        0
      ],
      "max": [
        0,
        0,
        0
      ],
      "type": "VEC3"
    },
    {
      "bufferView": 9,
      "byteOffset": 0,
      "componentType": 5123,
      "normalized": false,
      "count": 2880,
      "min": [
        0
      ],
      "max": [
        1875
      ],
      "type": "SCALAR"
    }
  ],
  "scene": 0,
  "scenes": [
    {
      "nodes": [
        0
      ],
      "name": "AnimatedMorphSphere"
    }
  ],
  "nodes": [
    {
      "name": "AnimatedMorphSphere",
      "translation": [
        0,
        0,
        0
      ],
      "rotation": [
        0,
        0.7071067094802856,
        -0.7071068286895752,
        0
      ],
      "scale": [
        100,
        100,
        100
      ],
      "mesh": 0
    }
  ],
  "meshes": [
    {
      "primitives": [
        {
          "material": 0,
          "mode": 4,
          "attributes": {
            "NORMAL": 0,
            "TANGENT": 1,
            "POSITION": 2
          },
          "targets": [
            {
              "normal": 3,
              "position": 4,
              "tangent": 5
            },
            {
              "normal": 6,
              "position": 7,
              "tangent": 8
            }
          ],
          "indices": 9
        }
      ],
      "weights": [
        0.6900106275917279,
        0.309989372408272
      ]
    }
  ],
  "materials": [
    {
      "name": "No Name",
      "pbrMetallicRoughness": {
        "baseColorFactor": [
          1,
          1,
          1,
          1
        ],
        "metallicFactor": 0,
        "roughnessFactor": 0.5
      },
      "emissiveFactor": [
        0,
        0,
        0
      ],
      "alphaMode": "OPAQUE",
      "doubleSided": false
    }
  ]
}